<svg xmlns="http://www.w3.org/2000/svg" width="160" height="48" viewBox="0 0 160 48">
    <g fill="none" fill-rule="evenodd" transform="translate(.001)">
        <rect width="160" height="48" fill="#FFF" rx="6" transform="translate(-.001)"/>
        <g fill="#1A1311" fill-rule="nonzero">
            <path d="M9.326 11.133H3.79l-1.355 3.705H0L5.422 1.005h2.3l5.547 13.829h-2.558l-1.385-3.7zm-4.839-1.88H8.62L7.14 5.291c-.203-.547-.403-1.152-.6-1.814-.178.586-.372 1.184-.582 1.795L4.487 9.253zM14.367 7.055c0-.764-.025-1.604-.076-2.52h2.215c.083.432.14.869.172 1.308.78-.936 1.931-1.484 3.15-1.5 1.446-.023 2.761.832 3.327 2.162.39.899.574 1.872.54 2.85.029 1.062-.182 2.116-.617 3.084-.367.804-.967 1.48-1.723 1.938-.777.449-1.661.677-2.558.659-.705-.002-1.406-.121-2.072-.354v4.257l-2.358.2V7.056zm6.2 5.264c.536-.842.788-1.834.721-2.83 0-1.152-.198-1.987-.596-2.506-.37-.505-.964-.795-1.59-.777-.444-.004-.881.107-1.27.323-.41.234-.782.527-1.107.87v5.517c.262.124.537.215.821.272.304.066.615.1.927.1.816.048 1.602-.315 2.095-.968zM25.203 7.055c0-.764-.025-1.604-.075-2.52h2.214c.083.432.14.869.172 1.308.78-.936 1.931-1.484 3.15-1.5 1.446-.023 2.761.832 3.327 2.162.39.899.574 1.872.54 2.85.029 1.062-.182 2.116-.617 3.084-.367.804-.967 1.48-1.723 1.938-.776.45-1.661.677-2.558.659-.705-.002-1.406-.121-2.072-.354v4.257l-2.358.2V7.056zm6.2 5.264c.536-.842.788-1.834.721-2.83 0-1.152-.199-1.987-.597-2.506-.37-.505-.964-.795-1.589-.777-.444-.004-.882.107-1.27.323-.41.234-.782.527-1.107.87v5.517c.262.124.537.215.821.272.304.066.615.1.926.1.817.048 1.603-.315 2.096-.968zM38.98 14.181c-1.01-.552-1.828-1.395-2.35-2.42-.572-1.156-.853-2.434-.821-3.723-.043-1.38.283-2.746.945-3.958.595-1.052 1.491-1.902 2.573-2.443 1.135-.556 2.386-.836 3.65-.817.766-.003 1.53.085 2.276.263.697.166 1.374.408 2.02.72l-.6 1.815c-1.115-.564-2.341-.87-3.59-.897-.881-.02-1.752.192-2.526.615-.73.42-1.318 1.05-1.684 1.809-.424.9-.63 1.888-.6 2.883-.017.897.14 1.788.463 2.625.29.74.8 1.373 1.46 1.814.753.47 1.63.703 2.516.668.46 0 .92-.038 1.374-.114.44-.071.87-.183 1.289-.334V9.89h-3.197V8.057h5.489v5.824c-.797.371-1.63.656-2.488.85-.85.195-1.72.294-2.592.296-1.255.03-2.497-.26-3.608-.846zM56.163 14.835c-.089-.45-.143-.906-.162-1.365-.395.458-.877.832-1.418 1.1-.61.31-1.287.465-1.971.454-.559.007-1.112-.113-1.619-.35-.481-.228-.885-.593-1.16-1.05-.3-.52-.448-1.113-.429-1.713-.035-.923.364-1.808 1.079-2.392.719-.595 1.919-.893 3.6-.893.626 0 1.251.045 1.871.135v-.2c0-.91-.194-1.552-.583-1.924-.461-.399-1.061-.6-1.67-.558-.544.005-1.086.08-1.613.22-.518.127-1.023.303-1.508.524l-.373-1.718c.536-.228 1.092-.404 1.661-.525.715-.162 1.445-.242 2.177-.239.777-.02 1.55.117 2.272.406.634.28 1.15.773 1.46 1.394.387.83.568 1.743.526 2.659v4.095c0 .426.025 1.072.076 1.938l-2.216.002zm-1.413-1.909c.456-.21.865-.508 1.203-.879v-1.909c-.523-.062-1.049-.097-1.576-.104-.973 0-1.646.157-2.019.471-.372.316-.578.787-.558 1.275-.034.418.113.83.406 1.132.306.257.7.388 1.1.367.502-.006.997-.127 1.446-.353h-.002zM60.365 12.363V.19L62.715 0v11.943c-.03.326.049.653.224.93.183.195.446.296.712.272.21-.01.419-.045.62-.105l.278 1.69c-.264.1-.538.172-.817.215-.3.052-.605.08-.911.081-1.638 0-2.456-.888-2.456-2.663zM66.236 12.363V.19L68.586 0v11.943c-.03.326.049.653.225.93.182.195.445.296.711.272.21-.01.419-.045.62-.105l.278 1.69c-.264.1-.538.172-.817.215-.3.052-.605.08-.911.081-1.638 0-2.456-.888-2.456-2.663zM80.193 9.986h-6.74c.109 2.157 1.137 3.236 3.084 3.236.5-.002.998-.061 1.485-.176.498-.116.985-.274 1.456-.473l.515 1.614c-1.214.573-2.543.86-3.885.84-.961.03-1.914-.183-2.769-.621-.739-.401-1.332-1.026-1.695-1.785-.4-.88-.594-1.84-.567-2.807-.027-1.013.178-2.019.6-2.94.362-.777.945-1.431 1.675-1.88.75-.443 1.608-.668 2.477-.65.865-.032 1.718.207 2.44.683.65.452 1.153 1.084 1.45 1.818.322.797.483 1.65.472 2.51l.002.63zm-2.3-1.5c.01-.67-.21-1.32-.62-1.848-.378-.414-.92-.64-1.48-.615-.564-.015-1.107.21-1.495.62-.443.519-.715 1.163-.778 1.843h4.373zM82.094 7.12c0-.566-.026-1.429-.076-2.587h2.204c.039.286.075.628.11 1.026.036.398.06.721.072.97.238-.402.507-.783.806-1.141.26-.306.575-.561.927-.754.37-.199.786-.3 1.207-.292.316-.006.63.033.936.115L87.984 6.5c-.248-.072-.506-.108-.764-.104-.516-.011-1.022.137-1.45.425-.517.39-.965.862-1.326 1.4v6.614h-2.35V7.12zM89.694 19.05c-.289-.047-.573-.116-.85-.206l.429-1.718c.159.044.36.087.6.129.227.04.457.06.687.062 1.044 0 1.827-.672 2.35-2.014l.15-.382-3.8-10.387h2.53l1.91 5.804c.247.748.447 1.51.6 2.282.178-.745.388-1.49.629-2.234l1.938-5.85h2.377l-3.79 10.434c-.284.84-.672 1.642-1.154 2.387-.37.564-.873 1.026-1.466 1.346-.634.309-1.334.46-2.038.44-.37 0-.739-.03-1.103-.094z" transform="translate(49.847 21.219)"/>
        </g>
        <g fill="#1A1311" fill-rule="nonzero">
            <path d="M0 .1L4.25.1 4.13 1.127 1.244 1.127 1.244 3.115 3.966 3.115 3.966 4.078 1.244 4.078 1.244 6.282 4.288 6.282 4.184 7.319.001 7.319zM7.184 3.634L4.94.1 6.356.1 7.877 2.696 9.476.1 10.853.1 8.63 3.59 11.037 7.319 9.601 7.319 7.881 4.477 6.131 7.319 4.756 7.319zM11.954.1H13.9c.742-.05 1.48.147 2.1.558.492.387.764.99.728 1.615.01.44-.103.874-.326 1.253-.217.357-.533.643-.91.823-.419.198-.878.296-1.341.287-.318-.005-.635-.038-.947-.1v2.782h-1.246L11.954.1zm3.126 3.222c.276-.264.423-.637.4-1.019.034-.369-.118-.73-.406-.962-.358-.22-.775-.323-1.194-.294h-.678v2.562c.237.043.477.068.718.075.418.03.832-.1 1.16-.362zM17.956.1L19.202.1 19.202 6.25 22.189 6.25 22.084 7.316 17.956 7.316zM24.082 6.965c-.52-.295-.942-.739-1.21-1.274-.29-.593-.434-1.247-.42-1.907-.016-.692.138-1.377.447-1.996.286-.56.735-1.02 1.286-1.322.61-.322 1.292-.483 1.982-.466.655-.018 1.303.138 1.878.45.518.294.936.736 1.2 1.269.287.59.429 1.24.415 1.895.017.7-.138 1.392-.45 2.019-.288.558-.736 1.018-1.287 1.32-.603.32-1.279.48-1.961.464-.656.017-1.304-.139-1.88-.452zm3.231-.885c.352-.238.624-.574.783-.968.18-.447.269-.925.26-1.407.008-.472-.07-.942-.229-1.386-.141-.39-.396-.728-.732-.97-.384-.254-.838-.38-1.297-.361-.456-.014-.906.114-1.286.366-.353.245-.628.586-.793.982-.18.43-.27.892-.264 1.359-.008.478.077.953.25 1.4.152.394.417.734.762.977.377.249.821.374 1.272.359.45.014.894-.109 1.274-.351zM31.052.1h2.259c.661-.046 1.32.127 1.872.493.428.34.665.865.636 1.41.007.35-.072.697-.23 1.01-.139.273-.332.515-.569.71-.21.173-.446.311-.7.409l2.22 3.186h-1.447l-1.879-2.862h-.917v2.861H31.05L31.052.1zm1.954 3.414c.278.006.554-.055.803-.177.226-.111.414-.285.544-.5.132-.226.2-.483.194-.745.025-.306-.104-.604-.344-.796-.299-.185-.649-.273-1-.25h-.9v2.468h.703zM37.529.1L41.779.1 41.659 1.127 38.773 1.127 38.773 3.115 41.494 3.115 41.494 4.078 38.773 4.078 38.773 6.282 41.814 6.282 41.709 7.319 37.526 7.319zM46.407.1L47.653.1 47.653 7.318 46.407 7.318zM50.948 1.139L48.709 1.139 48.819.098 54.44.098 54.325 1.139 52.197 1.139 52.197 7.318 50.95 7.318zM59.846 6.965c-.522-.295-.943-.739-1.211-1.274-.29-.593-.434-1.247-.42-1.907-.016-.692.138-1.377.447-1.996.286-.56.735-1.02 1.286-1.322.61-.322 1.292-.483 1.981-.466.655-.018 1.303.138 1.879.45.518.294.936.736 1.2 1.269.286.59.428 1.24.414 1.895.017.7-.137 1.392-.45 2.019-.288.558-.736 1.018-1.286 1.32-.604.32-1.28.48-1.962.464-.655.017-1.303-.139-1.878-.452zm3.23-.885c.352-.238.624-.574.783-.968.18-.447.268-.926.259-1.408.008-.472-.07-.942-.23-1.386-.14-.39-.396-.728-.732-.97-.383-.254-.837-.38-1.297-.361-.456-.014-.905.114-1.286.366-.352.245-.627.586-.792.982-.18.43-.27.892-.264 1.358-.008.479.077.954.25 1.4.151.395.417.735.762.978.376.249.82.374 1.271.359.451.014.896-.108 1.276-.35zM66.816.1h1.428l3.569 5.593c-.03-.532-.045-1.022-.045-1.471V.099h1.156v7.219h-1.386l-3.623-5.683c.036.645.054 1.217.054 1.715v3.969h-1.156l.002-7.22z" transform="translate(49.836 8.666)"/>
        </g>
        <g fill-rule="nonzero">
            <path fill="#C00020" d="M8.567 0C2.295 0 0 2.294 0 8.567v13.316c0 6.273 2.295 8.567 8.567 8.567h13.311c6.272 0 8.572-2.294 8.572-8.567V8.567C30.45 2.294 28.156 0 21.883 0H8.567z" transform="translate(10.453 8.708)"/>
            <path fill="#FFF" d="M6.03 15.227h.808v3.982H6.03v-1.617H4.206v1.616h-.808v-3.981h.808v1.606H6.03v-1.605zm4.55 2.28c0 .646-.322.992-.905.992-.584 0-.91-.355-.91-1.02v-2.25h-.808v2.277c0 1.119.622 1.761 1.707 1.761 1.095 0 1.723-.654 1.723-1.794v-2.246h-.807v2.28zm9.335.458l-.904-2.738h-.66l-.903 2.738-.88-2.736h-.859l1.387 3.98h.669l.905-2.614.905 2.614h.675l1.384-3.98h-.837l-.882 2.736zm3.167-.47h1.469v-.725h-1.467v-.815h2.133v-.726h-2.933v3.977h3.007v-.726h-2.207l-.002-.985zm3.172 1.708h.797v-3.976h-.796v3.976zm-13.27-.825l-.363.828h-.824l1.753-3.979h.713l1.748 3.98h-.848l-.357-.83h-1.822zm.3-.718h1.221l-.613-1.425-.608 1.425zM15.225 10.159c-2.798-.004-5.065-2.271-5.069-5.069h.716c0 2.404 1.95 4.353 4.353 4.353 2.404 0 4.353-1.95 4.353-4.353h.716c-.004 2.798-2.271 5.065-5.069 5.069z" transform="translate(10.453 8.708)"/>
        </g>
    </g>
</svg>
